<?xml version="1.0" standalone="no"?>
<!DOCTYPE svg PUBLIC "-//W3C//DTD SVG 20010904//EN"
 "http://www.w3.org/TR/2001/REC-SVG-20010904/DTD/svg10.dtd">
<svg version="1.0" xmlns="http://www.w3.org/2000/svg"
 width="2450.000000pt" height="754.000000pt" viewBox="0 0 2450.000000 754.000000"
 preserveAspectRatio="xMidYMid meet">

<g transform="translate(0.000000,754.000000) scale(0.100000,-0.100000)"
fill="#b3b2b3" stroke="none">
<path d="M13013 6366 c-301 -58 -484 -235 -539 -524 -39 -205 9 -385 135 -505
67 -64 130 -98 238 -129 105 -30 309 -32 429 -4 l82 18 11 92 c6 50 14 105 17
123 l6 32 -74 -27 c-65 -24 -87 -27 -203 -27 -116 0 -135 3 -177 24 -104 51
-158 148 -158 280 0 127 44 234 130 322 85 86 139 104 315 104 131 0 144 -2
208 -29 38 -15 70 -26 72 -24 1 1 18 53 38 115 l34 112 -46 15 c-132 42 -384
57 -518 32z"/>
<path d="M1726 6343 c-2 -10 -8 -55 -11 -100 l-7 -83 637 0 638 0 -7 -77 c-4
-42 -9 -80 -12 -85 -3 -4 -290 -8 -638 -8 l-633 0 -7 -31 c-3 -17 -6 -47 -6
-65 l0 -34 636 0 636 0 -7 -67 c-4 -38 -9 -76 -11 -85 -5 -17 -44 -18 -638
-18 l-633 0 -7 -31 c-3 -17 -6 -49 -6 -70 l0 -39 636 0 636 0 -6 -27 c-3 -16
-8 -52 -11 -80 l-7 -53 -633 0 -633 0 -5 -22 c-3 -13 -8 -57 -12 -98 l-7 -75
4483 3 c2466 2 4485 5 4487 6 3 4 242 1133 242 1147 0 5 -1845 9 -4544 9
-4320 0 -4545 -1 -4550 -17z"/>
<path d="M11466 5797 c-66 -309 -122 -570 -124 -579 -4 -17 8 -18 150 -18
l153 0 59 278 c32 152 60 279 62 281 9 9 24 -20 144 -286 l123 -273 174 0 c95
0 173 3 173 8 0 4 -65 142 -145 306 -80 164 -145 303 -145 308 0 6 110 126
245 268 135 142 245 261 245 264 0 3 -75 6 -167 6 l-168 -1 -220 -249 c-121
-137 -223 -250 -227 -250 -13 0 -10 15 37 235 25 116 48 222 51 238 l6 27
-154 0 -153 0 -119 -563z"/>
<path d="M13655 6348 c-7 -19 -45 -196 -45 -208 0 -6 52 -10 140 -10 77 0 140
-4 140 -8 0 -5 -43 -210 -95 -457 -52 -246 -95 -452 -95 -457 0 -4 69 -8 154
-8 l154 0 9 43 c5 23 49 232 98 465 l89 422 146 0 147 0 21 103 c12 57 22 109
22 115 0 18 -879 17 -885 0z"/>
<path d="M1560 5022 c0 -4 -85 -864 -190 -1911 -104 -1046 -190 -1913 -190
-1927 l0 -24 630 0 c564 0 630 2 630 16 0 29 180 1818 184 1821 2 2 6 -34 9
-79 8 -99 28 -177 68 -267 17 -37 247 -382 518 -776 l487 -710 767 -3 c422 -1
767 0 767 3 0 3 -253 396 -562 873 -309 477 -570 888 -580 915 -37 97 -18 202
53 296 23 30 357 437 743 905 386 468 705 857 709 864 7 9 -146 12 -750 12
l-758 0 -605 -665 c-333 -366 -626 -691 -653 -722 -72 -86 -153 -257 -180
-378 -14 -63 1 110 78 883 47 470 85 860 85 868 0 12 -94 14 -630 14 -346 0
-630 -4 -630 -8z"/>
<path d="M5780 4449 c-289 -319 -574 -632 -633 -697 -166 -178 -240 -316 -283
-524 -25 -117 -25 -339 0 -433 24 -91 81 -212 142 -301 27 -39 244 -355 483
-702 l434 -632 768 0 769 0 -54 83 c-29 45 -282 435 -561 867 -280 432 -517
805 -529 830 -14 32 -21 66 -21 115 0 125 -101 -7 1232 1608 l303 367 -763 -1
-762 0 -525 -580z"/>
<path d="M8040 5027 c0 -2 -85 -859 -190 -1906 -104 -1046 -190 -1916 -190
-1932 l0 -29 628 0 628 0 188 1888 c103 1038 190 1908 193 1935 l6 47 -632 0
c-347 0 -631 -1 -631 -3z"/>
<path d="M11565 4346 c-45 -7 -104 -21 -131 -30 l-51 -17 -7 -67 c-3 -37 -6
-89 -6 -116 0 -42 2 -47 18 -40 137 60 300 80 405 50 95 -28 153 -95 171 -198
l7 -38 -220 0 c-221 0 -221 0 -226 -22 -29 -126 -35 -156 -35 -175 l0 -23 216
0 216 0 -7 -27 c-10 -42 -49 -103 -92 -146 -104 -105 -292 -142 -481 -97 -46
11 -92 24 -102 30 -16 9 -20 -1 -44 -95 -14 -57 -26 -111 -26 -118 0 -29 151
-52 325 -51 138 1 173 5 257 27 336 89 528 337 529 682 1 217 -76 354 -243
430 -114 52 -298 68 -473 41z"/>
<path d="M16992 4350 c-312 -56 -532 -327 -549 -675 -16 -332 157 -514 489
-515 276 0 508 138 623 375 52 105 67 173 72 328 5 122 3 145 -17 206 -39 123
-135 220 -259 261 -75 26 -267 36 -359 20z m201 -234 c81 -35 119 -111 119
-240 0 -280 -143 -486 -337 -486 -105 0 -178 53 -205 149 -26 94 -1 290 50
390 65 130 163 201 277 201 35 0 78 -6 96 -14z"/>
<path d="M12580 4338 c-1 -2 -56 -262 -124 -578 l-122 -575 149 -3 c82 -1 151
-1 153 1 2 2 27 113 56 248 l53 244 183 3 c100 1 182 -1 182 -5 0 -5 -23 -113
-50 -242 -28 -128 -50 -237 -50 -242 0 -6 64 -8 152 -7 l152 3 123 575 c67
316 122 576 123 578 0 1 -69 2 -153 2 l-153 0 -47 -216 c-25 -119 -48 -218
-50 -221 -2 -2 -85 -2 -184 -1 l-179 3 42 200 c24 110 43 208 44 218 0 15 -14
17 -150 17 -82 0 -150 -1 -150 -2z"/>
<path d="M13775 4328 c-2 -7 -56 -260 -120 -563 -64 -302 -119 -558 -121 -568
-5 -16 18 -17 412 -15 l418 3 16 75 c9 41 19 90 23 108 l7 32 -264 0 -263 0
23 108 c13 59 26 117 29 130 l5 22 239 0 239 0 16 72 c9 40 19 90 23 110 l6
38 -237 0 c-182 0 -236 3 -236 13 0 6 11 59 23 117 l23 105 254 5 255 5 16 70
c9 39 19 87 23 108 l7 37 -406 0 c-316 0 -407 -3 -410 -12z"/>
<path d="M14776 4323 c-3 -10 -57 -263 -121 -563 -64 -300 -118 -553 -121
-562 -5 -17 7 -18 149 -18 l154 0 32 153 c18 83 38 175 44 202 l12 50 155 6
c199 8 289 38 392 129 112 98 156 307 95 451 -32 78 -139 139 -275 159 -37 5
-167 10 -289 10 -203 0 -222 -2 -227 -17z m449 -219 c79 -37 88 -163 17 -237
-39 -41 -84 -57 -185 -64 -89 -6 -90 -6 -85 15 4 12 19 85 34 162 l29 140 78
0 c51 0 91 -6 112 -16z"/>
<path d="M15810 4332 c0 -4 -54 -261 -120 -571 -66 -310 -120 -567 -120 -572
0 -6 65 -8 152 -7 l152 3 98 460 c53 253 97 461 98 462 0 2 107 4 237 5 l236
3 23 100 c13 55 23 106 24 113 0 9 -84 12 -390 12 -214 0 -390 -4 -390 -8z"/>
<path d="M11255 2298 c-3 -13 -57 -268 -120 -568 -64 -300 -118 -551 -120
-557 -3 -10 37 -13 183 -13 l187 1 259 389 c143 215 262 390 267 390 4 0 -4
-44 -18 -97 -14 -54 -53 -228 -88 -388 l-62 -290 150 -3 c82 -1 151 -1 153 1
5 4 244 1127 244 1144 0 10 -39 13 -182 13 l-183 -1 -254 -378 c-139 -208
-257 -385 -262 -392 -20 -32 -16 5 13 116 16 66 56 240 87 388 l57 267 -153 0
c-150 0 -153 0 -158 -22z"/>
<path d="M12510 2313 c0 -3 -54 -260 -120 -570 -66 -310 -120 -568 -120 -574
0 -6 58 -8 152 -7 l151 3 48 225 c27 124 51 235 54 248 5 22 7 22 185 22 151
0 180 -2 180 -15 0 -12 -76 -382 -95 -462 l-5 -23 155 0 c85 0 155 4 155 9 0
5 54 262 120 572 66 310 120 567 120 571 0 5 -69 7 -152 6 l-153 -3 -47 -220
c-26 -121 -47 -221 -48 -222 0 -2 -81 -3 -180 -3 -151 0 -180 2 -180 15 0 14
76 384 86 418 5 16 -7 17 -150 17 -86 0 -156 -3 -156 -7z"/>
<path d="M13633 2293 c36 -71 217 -481 217 -492 0 -6 -109 -147 -242 -314
-132 -166 -245 -308 -251 -314 -7 -10 26 -13 159 -13 l169 0 207 263 c114 144
214 271 222 282 8 11 17 17 20 14 4 -3 -20 -129 -52 -280 l-58 -274 149 -3
c83 -1 152 0 154 2 3 3 31 128 62 278 32 150 62 273 67 273 5 0 59 -124 120
-275 l112 -275 167 -3 c132 -2 166 0 162 10 -3 7 -62 143 -131 302 -108 245
-125 290 -114 304 7 10 113 133 236 274 122 142 222 260 222 263 0 3 -76 5
-170 5 l-169 0 -202 -250 c-170 -210 -219 -266 -219 -247 0 1 24 113 53 250
l54 247 -154 0 c-84 0 -153 -1 -153 -2 -6 -52 -109 -493 -116 -495 -5 -2 -55
108 -111 244 l-101 248 -161 3 -162 2 14 -27z"/>
<path d="M15356 2303 c-3 -10 -57 -263 -121 -563 -64 -300 -118 -553 -121
-562 -5 -17 8 -18 180 -18 l185 0 263 391 c144 215 264 387 265 382 2 -5 -10
-68 -27 -139 -17 -71 -53 -232 -81 -359 -27 -126 -51 -240 -54 -252 l-5 -23
155 0 c85 0 155 4 155 8 0 4 54 261 120 571 66 310 120 567 120 572 0 5 -82 9
-183 9 l-183 0 -254 -380 c-231 -347 -280 -416 -280 -396 0 4 16 69 34 144 36
143 136 598 136 620 0 9 -37 12 -149 12 -134 0 -150 -2 -155 -17z"/>
<path d="M16610 2317 c0 -2 -54 -257 -120 -567 -66 -310 -120 -569 -120 -577
0 -10 32 -13 150 -13 147 0 150 0 155 23 3 12 27 123 54 247 l48 225 181 3
c143 2 182 0 182 -10 0 -7 -20 -108 -45 -223 -25 -116 -48 -222 -51 -237 l-6
-28 154 0 153 0 119 563 c66 309 122 570 124 580 4 16 -8 17 -149 17 l-154 0
-33 -158 c-18 -86 -40 -187 -48 -224 l-16 -68 -179 0 c-169 0 -179 1 -179 19
0 15 64 329 84 414 4 16 -8 17 -150 17 -85 0 -154 -1 -154 -3z"/>
<path d="M17805 2298 c-3 -13 -59 -273 -124 -578 l-118 -555 181 -3 c135 -2
183 1 192 10 7 7 125 182 263 388 139 206 256 376 261 378 4 2 -5 -48 -21
-110 -16 -62 -54 -230 -84 -373 -31 -143 -58 -268 -61 -277 -5 -17 7 -18 150
-18 86 0 156 2 156 5 0 3 54 260 120 570 66 310 120 569 120 575 0 6 -63 10
-182 10 l-183 0 -253 -378 c-139 -207 -257 -384 -262 -392 -21 -33 -17 3 11
115 33 129 139 620 139 642 0 10 -31 13 -150 13 -147 0 -150 0 -155 -22z"/>
<path d="M18942 1753 c-67 -313 -122 -575 -122 -581 0 -9 41 -12 149 -12 134
0 150 2 155 18 3 9 22 94 41 187 20 94 38 178 41 188 5 15 20 17 132 17 211 0
338 44 437 151 75 82 99 146 99 274 1 59 -4 115 -12 137 -16 46 -76 108 -127
132 -89 43 -132 48 -405 53 l-266 5 -122 -569z m568 329 c48 -24 61 -54 57
-129 -6 -111 -68 -159 -221 -170 -80 -6 -86 -5 -86 13 0 16 34 190 55 282 5
20 11 22 83 22 53 0 88 -5 112 -18z"/>
<path d="M20095 2308 c-2 -7 -56 -260 -120 -563 -64 -302 -118 -558 -121 -567
-5 -17 8 -18 180 -18 l186 0 262 392 c144 216 263 388 265 382 2 -7 -10 -66
-27 -133 -16 -66 -53 -227 -80 -357 -28 -130 -53 -247 -56 -260 l-6 -24 154 0
154 0 119 558 c65 306 120 567 123 580 l4 22 -184 0 -185 0 -78 -117 c-213
-322 -447 -664 -451 -660 -3 3 9 60 26 128 32 124 140 620 140 639 0 16 -299
13 -305 -2z"/>
<path d="M21350 2318 c0 -2 -56 -262 -123 -578 l-122 -575 149 -3 c82 -1 151
0 153 2 3 3 28 114 57 248 l51 243 183 3 c121 2 182 -1 182 -8 0 -6 -22 -115
-50 -243 -27 -127 -50 -235 -50 -240 0 -4 69 -6 152 -5 l153 3 122 570 c67
314 122 573 122 578 1 4 -68 7 -152 7 l-153 0 -44 -207 c-24 -115 -47 -216
-52 -225 -8 -16 -27 -18 -182 -18 -95 0 -175 2 -178 5 -3 3 5 55 18 115 13 61
35 160 48 220 l23 110 -153 0 c-85 0 -154 -1 -154 -2z"/>
<path d="M22545 2308 c-2 -7 -56 -260 -120 -563 -64 -302 -118 -558 -121 -567
-5 -17 7 -18 149 -18 152 0 155 0 160 23 3 12 47 221 98 465 l94 442 237 0
237 0 11 58 c7 31 18 83 25 115 l13 57 -389 0 c-303 0 -391 -3 -394 -12z"/>
</g>
</svg>
